<?xml version="1.0" encoding="UTF-8"?>
<svg xmlns="http://www.w3.org/2000/svg" xmlns:xlink="http://www.w3.org/1999/xlink" width="150px" height="85px" viewBox="0 0 150 85" version="1.1">
<g id="surface1">
<path style=" stroke:none;fill-rule:nonzero;fill:rgb(90.196079%,22.352941%,27.450982%);fill-opacity:1;" d="M 15.625 23.613281 L 18.75 34.628906 L 70.3125 34.628906 C 71.351562 34.628906 72.007812 35.15625 72.265625 36.207031 L 75 47.222656 C 75.257812 48.273438 74.742188 48.792969 73.4375 48.792969 L 21.09375 48.792969 C 20.054688 48.792969 19.398438 48.273438 19.140625 47.222656 L 15.625 34.628906 Z M 15.625 23.613281 "/>
<path style=" stroke:none;fill-rule:nonzero;fill:rgb(90.196079%,22.352941%,27.450982%);fill-opacity:1;" d="M 24.648438 66.898438 L 24.648438 54.496094 L 28.378906 54.496094 L 30.605469 62.953125 L 32.8125 54.496094 L 36.542969 54.496094 L 36.542969 66.898438 L 34.238281 66.898438 L 34.238281 57.132812 L 31.796875 66.898438 L 29.394531 66.898438 L 26.953125 57.132812 L 26.953125 66.898438 Z M 24.648438 66.898438 "/>
<path style=" stroke:none;fill-rule:nonzero;fill:rgb(90.196079%,22.352941%,27.450982%);fill-opacity:1;" d="M 40.742188 60.648438 L 38.613281 60.257812 C 38.847656 59.398438 39.257812 58.765625 39.84375 58.34375 C 40.441406 57.929688 41.3125 57.71875 42.460938 57.71875 C 43.515625 57.71875 44.296875 57.847656 44.804688 58.089844 C 45.324219 58.339844 45.6875 58.65625 45.898438 59.046875 C 46.117188 59.4375 46.230469 60.152344 46.230469 61.175781 L 46.191406 63.949219 C 46.191406 64.730469 46.230469 65.3125 46.308594 65.6875 C 46.386719 66.070312 46.527344 66.46875 46.738281 66.898438 L 44.394531 66.898438 C 44.339844 66.742188 44.269531 66.507812 44.179688 66.195312 C 44.140625 66.054688 44.105469 65.960938 44.082031 65.921875 C 43.675781 66.3125 43.246094 66.605469 42.792969 66.800781 C 42.335938 66.996094 41.847656 67.09375 41.328125 67.09375 C 40.414062 67.09375 39.691406 66.851562 39.160156 66.351562 C 38.625 65.84375 38.359375 65.210938 38.359375 64.4375 C 38.359375 63.929688 38.476562 63.480469 38.710938 63.089844 C 38.957031 62.691406 39.296875 62.382812 39.726562 62.171875 C 40.167969 61.96875 40.800781 61.78125 41.621094 61.625 C 42.714844 61.421875 43.476562 61.226562 43.90625 61.039062 L 43.90625 60.804688 C 43.90625 60.351562 43.792969 60.023438 43.574219 59.828125 C 43.351562 59.632812 42.929688 59.535156 42.304688 59.535156 C 41.886719 59.535156 41.5625 59.625 41.328125 59.789062 C 41.09375 59.945312 40.898438 60.234375 40.742188 60.648438 Z M 43.90625 62.582031 C 43.605469 62.691406 43.125 62.8125 42.460938 62.953125 C 41.808594 63.101562 41.386719 63.238281 41.191406 63.363281 C 40.878906 63.589844 40.722656 63.867188 40.722656 64.203125 C 40.722656 64.53125 40.84375 64.820312 41.09375 65.0625 C 41.339844 65.3125 41.652344 65.433594 42.03125 65.433594 C 42.460938 65.433594 42.863281 65.292969 43.242188 65.003906 C 43.527344 64.800781 43.714844 64.535156 43.808594 64.222656 C 43.871094 64.019531 43.90625 63.628906 43.90625 63.050781 Z M 43.90625 62.582031 "/>
<path style=" stroke:none;fill-rule:nonzero;fill:rgb(90.196079%,22.352941%,27.450982%);fill-opacity:1;" d="M 50.808594 66.898438 L 48.445312 66.898438 L 48.445312 57.914062 L 50.632812 57.914062 L 50.632812 59.183594 C 51.007812 58.589844 51.347656 58.199219 51.648438 58.011719 C 51.945312 57.816406 52.285156 57.71875 52.664062 57.71875 C 53.195312 57.71875 53.71875 57.871094 54.226562 58.167969 L 53.484375 60.238281 C 53.09375 59.980469 52.726562 59.847656 52.390625 59.847656 C 52.050781 59.847656 51.765625 59.941406 51.53125 60.121094 C 51.308594 60.308594 51.132812 60.640625 51.003906 61.117188 C 50.871094 61.601562 50.808594 62.601562 50.808594 64.125 Z M 50.808594 66.898438 "/>
<path style=" stroke:none;fill-rule:nonzero;fill:rgb(90.196079%,22.352941%,27.450982%);fill-opacity:1;" d="M 55.152344 66.898438 L 55.152344 54.496094 L 57.515625 54.496094 L 57.515625 61.078125 L 60.269531 57.914062 L 63.179688 57.914062 L 60.132812 61.195312 L 63.394531 66.898438 L 60.855469 66.898438 L 58.609375 62.855469 L 57.515625 64.027344 L 57.515625 66.898438 Z M 55.152344 66.898438 "/>
<path style=" stroke:none;fill-rule:nonzero;fill:rgb(90.196079%,22.352941%,27.450982%);fill-opacity:1;" d="M 69.945312 64.046875 L 72.308594 64.4375 C 72.007812 65.3125 71.527344 65.976562 70.863281 66.429688 C 70.210938 66.875 69.398438 67.09375 68.421875 67.09375 C 66.871094 67.09375 65.726562 66.585938 64.984375 65.570312 C 64.398438 64.75 64.105469 63.714844 64.105469 62.464844 C 64.105469 60.980469 64.488281 59.824219 65.257812 58.988281 C 66.039062 58.144531 67.015625 57.71875 68.1875 57.71875 C 69.515625 57.71875 70.5625 58.164062 71.332031 59.046875 C 72.101562 59.921875 72.464844 61.269531 72.425781 63.089844 L 66.527344 63.089844 C 66.539062 63.792969 66.730469 64.339844 67.09375 64.730469 C 67.457031 65.121094 67.914062 65.316406 68.460938 65.316406 C 68.824219 65.316406 69.132812 65.21875 69.378906 65.023438 C 69.640625 64.820312 69.828125 64.492188 69.945312 64.046875 Z M 70.082031 61.644531 C 70.070312 60.957031 69.894531 60.433594 69.554688 60.082031 C 69.214844 59.722656 68.804688 59.535156 68.324219 59.535156 C 67.816406 59.535156 67.394531 59.726562 67.054688 60.101562 C 66.714844 60.484375 66.554688 60.996094 66.566406 61.644531 Z M 70.082031 61.644531 "/>
<path style=" stroke:none;fill-rule:nonzero;fill:rgb(90.196079%,22.352941%,27.450982%);fill-opacity:1;" d="M 78.429688 57.914062 L 78.429688 59.808594 L 76.828125 59.808594 L 76.828125 63.421875 C 76.828125 64.164062 76.839844 64.59375 76.867188 64.710938 C 76.90625 64.828125 76.976562 64.925781 77.082031 65.003906 C 77.1875 65.082031 77.316406 65.121094 77.472656 65.121094 C 77.695312 65.121094 78.011719 65.054688 78.429688 64.90625 L 78.625 66.742188 C 78.078125 66.976562 77.460938 67.09375 76.769531 67.09375 C 76.339844 67.09375 75.957031 67.023438 75.617188 66.878906 C 75.277344 66.738281 75.023438 66.558594 74.855469 66.332031 C 74.699219 66.097656 74.59375 65.785156 74.542969 65.394531 C 74.492188 65.121094 74.464844 64.570312 74.464844 63.734375 L 74.464844 59.808594 L 73.371094 59.808594 L 73.371094 57.914062 L 74.464844 57.914062 L 74.464844 56.136719 L 76.828125 54.75 L 76.828125 57.914062 Z M 78.429688 57.914062 "/>
<path style=" stroke:none;fill-rule:nonzero;fill:rgb(90.196079%,22.352941%,27.450982%);fill-opacity:1;" d="M 80.054688 66.898438 L 80.054688 54.496094 L 83.785156 54.496094 L 86.011719 62.953125 L 88.21875 54.496094 L 91.949219 54.496094 L 91.949219 66.898438 L 89.644531 66.898438 L 89.644531 57.132812 L 87.203125 66.898438 L 84.800781 66.898438 L 82.359375 57.132812 L 82.359375 66.898438 Z M 80.054688 66.898438 "/>
<path style=" stroke:none;fill-rule:nonzero;fill:rgb(90.196079%,22.352941%,27.450982%);fill-opacity:1;" d="M 96.148438 60.648438 L 94.019531 60.257812 C 94.253906 59.398438 94.664062 58.765625 95.25 58.34375 C 95.84375 57.929688 96.71875 57.71875 97.867188 57.71875 C 98.921875 57.71875 99.703125 57.847656 100.210938 58.089844 C 100.726562 58.339844 101.09375 58.65625 101.304688 59.046875 C 101.523438 59.4375 101.636719 60.152344 101.636719 61.175781 L 101.597656 63.949219 C 101.597656 64.730469 101.636719 65.3125 101.714844 65.6875 C 101.792969 66.070312 101.933594 66.46875 102.144531 66.898438 L 99.800781 66.898438 C 99.746094 66.742188 99.671875 66.507812 99.585938 66.195312 C 99.546875 66.054688 99.511719 65.960938 99.488281 65.921875 C 99.082031 66.3125 98.652344 66.605469 98.199219 66.800781 C 97.738281 66.996094 97.25 67.09375 96.734375 67.09375 C 95.820312 67.09375 95.097656 66.851562 94.566406 66.351562 C 94.027344 65.84375 93.765625 65.210938 93.765625 64.4375 C 93.765625 63.929688 93.882812 63.480469 94.117188 63.089844 C 94.359375 62.691406 94.703125 62.382812 95.132812 62.171875 C 95.570312 61.96875 96.207031 61.78125 97.027344 61.625 C 98.121094 61.421875 98.882812 61.226562 99.3125 61.039062 L 99.3125 60.804688 C 99.3125 60.351562 99.199219 60.023438 98.980469 59.828125 C 98.753906 59.632812 98.335938 59.535156 97.710938 59.535156 C 97.289062 59.535156 96.96875 59.625 96.734375 59.789062 C 96.5 59.945312 96.304688 60.234375 96.148438 60.648438 Z M 99.3125 62.582031 C 99.007812 62.691406 98.53125 62.8125 97.867188 62.953125 C 97.210938 63.101562 96.792969 63.238281 96.597656 63.363281 C 96.285156 63.589844 96.128906 63.867188 96.128906 64.203125 C 96.128906 64.53125 96.25 64.820312 96.5 65.0625 C 96.742188 65.3125 97.054688 65.433594 97.4375 65.433594 C 97.867188 65.433594 98.265625 65.292969 98.648438 65.003906 C 98.929688 64.800781 99.121094 64.535156 99.214844 64.222656 C 99.277344 64.019531 99.3125 63.628906 99.3125 63.050781 Z M 99.3125 62.582031 "/>
<path style=" stroke:none;fill-rule:nonzero;fill:rgb(90.196079%,22.352941%,27.450982%);fill-opacity:1;" d="M 108.03125 57.914062 L 108.03125 59.808594 L 106.429688 59.808594 L 106.429688 63.421875 C 106.429688 64.164062 106.4375 64.59375 106.46875 64.710938 C 106.507812 64.828125 106.574219 64.925781 106.683594 65.003906 C 106.785156 65.082031 106.917969 65.121094 107.074219 65.121094 C 107.292969 65.121094 107.609375 65.054688 108.03125 64.90625 L 108.226562 66.742188 C 107.679688 66.976562 107.058594 67.09375 106.371094 67.09375 C 105.941406 67.09375 105.554688 67.023438 105.21875 66.878906 C 104.875 66.738281 104.621094 66.558594 104.457031 66.332031 C 104.300781 66.097656 104.191406 65.785156 104.144531 65.394531 C 104.089844 65.121094 104.066406 64.570312 104.066406 63.734375 L 104.066406 59.808594 L 102.972656 59.808594 L 102.972656 57.914062 L 104.066406 57.914062 L 104.066406 56.136719 L 106.429688 54.75 L 106.429688 57.914062 Z M 108.03125 57.914062 "/>
<path style=" stroke:none;fill-rule:nonzero;fill:rgb(90.196079%,22.352941%,27.450982%);fill-opacity:1;" d="M 114.828125 64.046875 L 117.191406 64.4375 C 116.890625 65.3125 116.410156 65.976562 115.746094 66.429688 C 115.09375 66.875 114.28125 67.09375 113.304688 67.09375 C 111.753906 67.09375 110.609375 66.585938 109.867188 65.570312 C 109.28125 64.75 108.988281 63.714844 108.988281 62.464844 C 108.988281 60.980469 109.371094 59.824219 110.140625 58.988281 C 110.921875 58.144531 111.898438 57.71875 113.070312 57.71875 C 114.398438 57.71875 115.445312 58.164062 116.214844 59.046875 C 116.980469 59.921875 117.347656 61.269531 117.308594 63.089844 L 111.410156 63.089844 C 111.421875 63.792969 111.609375 64.339844 111.976562 64.730469 C 112.339844 65.121094 112.796875 65.316406 113.34375 65.316406 C 113.707031 65.316406 114.011719 65.21875 114.261719 65.023438 C 114.519531 64.820312 114.710938 64.492188 114.828125 64.046875 Z M 114.964844 61.644531 C 114.949219 60.957031 114.773438 60.433594 114.4375 60.082031 C 114.097656 59.722656 113.6875 59.535156 113.207031 59.535156 C 112.699219 59.535156 112.273438 59.726562 111.9375 60.101562 C 111.597656 60.484375 111.433594 60.996094 111.449219 61.644531 Z M 114.964844 61.644531 "/>
</g>
</svg>
